<svg width="48" height="48" viewBox="0 0 48 48" fill="none" xmlns="http://www.w3.org/2000/svg">
<rect x="15" y="15.9999" width="18" height="16.443" rx="2" stroke="white" stroke-width="2"/>
<path d="M27 24.2217C27 25.6319 25.7347 26.9103 24 26.9103C22.2653 26.9103 21 25.6319 21 24.2217C21 22.8116 22.2653 21.5331 24 21.5331C25.7347 21.5331 27 22.8116 27 24.2217Z" stroke="white" stroke-width="2"/>
<mask id="path-3-inside-1_306_5006" fill="white">
<ellipse cx="29.5" cy="19.1505" rx="1.5" ry="1.38415"/>
</mask>
<ellipse cx="29.5" cy="19.1505" rx="1.5" ry="1.38415" fill="white"/>
<path d="M29 19.1505C29 18.9258 29.1026 18.7533 29.2043 18.6594C29.3034 18.568 29.413 18.5347 29.5 18.5347V22.5347C31.2786 22.5347 33 21.1678 33 19.1505H29ZM29.5 18.5347C29.587 18.5347 29.6966 18.568 29.7957 18.6594C29.8974 18.7533 30 18.9258 30 19.1505H26C26 21.1678 27.7214 22.5347 29.5 22.5347V18.5347ZM30 19.1505C30 19.3752 29.8974 19.5477 29.7957 19.6416C29.6966 19.733 29.587 19.7664 29.5 19.7664V15.7664C27.7214 15.7664 26 17.1332 26 19.1505H30ZM29.5 19.7664C29.413 19.7664 29.3034 19.733 29.2043 19.6416C29.1026 19.5477 29 19.3752 29 19.1505H33C33 17.1332 31.2786 15.7664 29.5 15.7664V19.7664Z" fill="white" mask="url(#path-3-inside-1_306_5006)"/>
</svg>
