<svg width="48" height="48" viewBox="0 0 48 48" fill="none" xmlns="http://www.w3.org/2000/svg">
<path d="M24.0005 19.8433C26.439 19.7971 28.878 19.9049 31.3005 20.1661C31.3838 20.188 31.4596 20.2292 31.5208 20.2857C31.5821 20.3421 31.6267 20.4121 31.6505 20.4888C31.8997 21.7978 32.0169 23.1252 32.0005 24.4541C32.0169 25.783 31.8997 27.1104 31.6505 28.4193C31.6267 28.4961 31.5821 28.566 31.5208 28.6225C31.4596 28.6789 31.3838 28.7201 31.3005 28.7421C28.878 29.0032 26.439 29.1111 24.0005 29.0648C21.5621 29.1111 19.123 29.0032 16.7005 28.7421C16.6173 28.7201 16.5414 28.6789 16.4802 28.6225C16.419 28.566 16.3743 28.4961 16.3505 28.4193C16.1013 27.1104 15.9841 25.783 16.0005 24.4541C15.9841 23.1252 16.1013 21.7978 16.3505 20.4888C16.3743 20.4121 16.419 20.3421 16.4802 20.2857C16.5414 20.2292 16.6173 20.188 16.7005 20.1661C19.123 19.9049 21.5621 19.7971 24.0005 19.8433ZM24.0005 17.999C24.0005 17.999 17.7505 17.999 16.1905 18.3863C15.7664 18.4918 15.3797 18.698 15.0691 18.9844C14.7585 19.2709 14.5349 19.6274 14.4205 20.0185C14.1309 21.4817 13.9903 22.9667 14.0005 24.4541C13.9903 25.9414 14.1309 27.4264 14.4205 28.8896C14.5349 29.2807 14.7585 29.6373 15.0691 29.9237C15.3797 30.2101 15.7664 30.4164 16.1905 30.5218C17.7505 30.9091 24.0005 30.9091 24.0005 30.9091C24.0005 30.9091 30.2505 30.9091 31.8105 30.5218C32.2346 30.4164 32.6213 30.2101 32.9319 29.9237C33.2425 29.6373 33.4662 29.2807 33.5805 28.8896C33.8702 27.4264 34.0108 25.9414 34.0005 24.4541C34.0108 22.9667 33.8702 21.4817 33.5805 20.0185C33.4662 19.6274 33.2425 19.2709 32.9319 18.9844C32.6213 18.698 32.2346 18.4918 31.8105 18.3863C30.2505 17.999 24.0005 17.999 24.0005 17.999Z" fill="white"/>
<path d="M22.001 21.6876V27.2205L27.001 24.4541L22.001 21.6876Z" fill="white"/>
</svg>
