<svg width="62" height="49" viewBox="0 0 62 49" fill="none" xmlns="http://www.w3.org/2000/svg">
<path d="M31 32.9767V40.0304" stroke="#EB601D" stroke-width="2" stroke-linecap="round"/>
<path d="M41.4081 47.0841H20.5918L21.6029 43.2559C21.7376 42.7444 22.1015 42.2841 22.6328 41.9533C23.1641 41.6224 23.8299 41.4415 24.5172 41.4412H37.4828C38.17 41.4415 38.8358 41.6224 39.3671 41.9533C39.8984 42.2841 40.2623 42.7444 40.397 43.2559L41.4081 47.0841Z" stroke="#EB601D" stroke-width="2" stroke-linecap="round" stroke-linejoin="round"/>
<path d="M52 8.05371L54.847 8.76698C57.817 9.51185 59.302 9.88428 60.151 10.7714C61 11.6584 61 12.8367 61 15.1909V15.3557C61 17.2969 61 18.2697 60.379 19.0642C59.758 19.8588 58.627 20.3305 56.371 21.2763L47.5 24.9826M10 8.05371L7.153 8.76698C4.183 9.51185 2.698 9.88428 1.849 10.7714C1 11.6584 1 12.8389 1 15.1909V15.3557C1 17.2969 1 18.2697 1.621 19.0642C2.242 19.8588 3.373 20.3305 5.629 21.2763L14.5 24.9826M28.438 10.3628C29.578 8.82115 30.148 8.05371 31 8.05371C31.852 8.05371 32.422 8.82115 33.562 10.3628L33.856 10.7601C34.18 11.198 34.342 11.4147 34.594 11.5591C34.849 11.7036 35.164 11.7577 35.794 11.8638L36.364 11.9631C38.578 12.3401 39.685 12.5274 39.949 13.164C40.213 13.8027 39.457 14.4664 37.948 15.7936L37.558 16.1367C37.129 16.5136 36.913 16.701 36.817 16.9357C36.721 17.1705 36.754 17.421 36.817 17.9244L36.877 18.3826C37.105 20.1545 37.219 21.0415 36.532 21.4343C35.842 21.827 34.804 21.4681 32.731 20.7503L32.197 20.5653C31.606 20.3621 31.312 20.2605 31 20.2605C30.688 20.2605 30.394 20.3621 29.803 20.5653L29.269 20.7503C27.196 21.4704 26.158 21.827 25.468 21.4343C24.778 21.0415 24.895 20.1545 25.123 18.3826L25.183 17.9244C25.246 17.421 25.279 17.1705 25.183 16.9357C25.087 16.7032 24.871 16.5136 24.442 16.1367L24.052 15.7936C22.543 14.4664 21.787 13.8027 22.051 13.164C22.315 12.5274 23.422 12.3401 25.636 11.9631L26.206 11.8638C26.836 11.7577 27.151 11.7058 27.406 11.5591C27.658 11.4147 27.82 11.198 28.144 10.7601L28.438 10.3628Z" stroke="#EB601D" stroke-width="2"/>
<path d="M48.8751 47.0841H13.126M45.896 2.05126C48.1035 2.37615 49.4143 2.7356 50.5433 3.81395C51.9644 5.1642 51.8899 6.62274 51.738 9.53983C51.2017 20.0307 48.1631 33.259 31.0035 33.259C13.844 33.259 10.8024 20.033 10.2602 9.53983C10.1112 6.62274 10.0367 5.16189 11.4518 3.81395C12.8698 2.4637 14.5649 2.2425 17.9581 1.8001C22.2693 1.2536 26.6319 0.986155 31.0005 1.00055C33.1395 1.00055 35.1296 1.05816 36.9587 1.15724" stroke="#EB601D" stroke-width="2" stroke-linecap="round"/>
</svg>
