<svg width="57" height="60" viewBox="0 0 57 60" fill="none" xmlns="http://www.w3.org/2000/svg">
<g clip-path="url(#clip0_308_5771)">
<path d="M41.0211 60C40.8082 60 40.5994 59.9262 40.4349 59.7934C40.2009 59.6058 34.6615 55.209 27.6735 52.1422C19.0366 48.3503 8.98905 48.2449 8.88995 48.2449C8.58209 48.2449 8.29321 48.0889 8.1203 47.8318C5.27999 43.6205 1.77968 38.1149 1.26306 36.4561C1.13444 36.024 0 32.0719 0 28.0988C0 12.6066 12.6117 0 28.1121 0C48.3823 0 54.5121 19.5222 56.2053 27.9175C57.4536 34.0996 56.5785 41.1312 56.0008 45.7809C55.5052 49.771 54.9443 51.6532 53.6876 53.5333C51.0455 57.4917 42.2378 59.7323 41.2404 59.9747C41.1666 59.9916 41.0928 60.0021 41.019 60.0021L41.0211 60ZM28.1121 1.87381C13.6449 1.87381 1.87456 13.6394 1.87456 28.1009C1.87456 31.8675 3.00689 35.7395 3.05328 35.9039C3.51929 37.3772 7.18618 43.0682 9.28215 46.2025C9.35806 46.3163 9.48247 46.3859 9.61742 46.3901C12.0634 46.4744 20.6476 47.014 28.4263 50.4286C34.419 53.0591 39.2667 56.5432 41.0717 57.9175C41.1455 57.9744 41.2362 58.0039 41.3269 58.0039C41.3627 58.0039 41.4007 57.9997 41.4365 57.9892C42.3517 57.7405 44.7386 57.0491 47.1572 55.9615C49.6749 54.8317 51.347 53.6661 52.1293 52.4942C53.2111 50.8733 53.6813 49.2503 54.141 45.5512C54.704 41.0174 55.5558 34.1692 54.3687 28.2864C49.7318 5.30528 35.9288 1.87381 28.1121 1.87381Z" fill="#D3591F"/>
<path d="M49.3204 22.2539C48.9345 22.2539 48.5823 22.0115 48.4453 21.6511C44.4368 11.1101 37.5943 5.76477 28.114 5.76477C27.5974 5.76477 27.1777 5.34533 27.1777 4.82892C27.1777 4.31251 27.5974 3.89307 28.114 3.89307C38.307 3.89307 45.9445 9.80327 50.1976 20.9871C50.381 21.4698 50.1385 22.0115 49.6556 22.1949C49.5481 22.2349 49.4363 22.256 49.3225 22.256L49.3204 22.2539Z" fill="#D3591F"/>
<path d="M50.7927 26.8742C50.3668 26.8742 49.9957 26.5854 49.8881 26.1744C49.8164 25.8983 49.7405 25.6201 49.6604 25.3376C49.5929 25.0973 49.6224 24.8444 49.7447 24.6252C49.867 24.406 50.0673 24.25 50.3077 24.1826C50.3921 24.1594 50.4785 24.1467 50.5629 24.1467C50.9783 24.1467 51.3494 24.4292 51.4633 24.8318C51.5455 25.1247 51.6235 25.4135 51.6994 25.7002C51.8302 26.1997 51.5307 26.7119 51.031 26.8426C50.953 26.8615 50.8728 26.8721 50.7927 26.8721V26.8742Z" fill="#D3591F"/>
<path d="M55.8759 37.6892C33.244 37.6892 21.5939 33.1153 21.1089 32.9214C20.7505 32.778 20.5143 32.4218 20.5206 32.034L20.683 23.2846C20.6893 22.979 20.8433 22.6965 21.0963 22.5258C21.2629 22.4141 25.2967 19.7351 35.844 15.9875C40.2299 14.4319 45.2358 13.2305 48.6623 12.497C48.7319 12.4822 48.7994 12.4738 48.8647 12.4738C49.2991 12.4738 49.6829 12.7858 49.7756 13.2158C49.8284 13.4603 49.782 13.7111 49.6449 13.9219C49.51 14.1326 49.2991 14.276 49.0545 14.3287C46.2901 14.9209 40.9806 16.1519 36.4702 17.7538C28.4174 20.6141 24.1939 22.8715 22.7516 23.7083C22.625 23.782 22.5449 23.9169 22.5407 24.0645L22.41 31.0918C22.4057 31.2752 22.5238 31.4417 22.6988 31.4986C25.731 32.5104 37.0817 35.8153 55.8738 35.8153C56.3904 35.8153 56.81 36.2348 56.81 36.7512C56.81 37.2676 56.3904 37.6871 55.8738 37.6871L55.8759 37.6892Z" fill="#D3591F"/>
</g>
<defs>
<clipPath id="clip0_308_5771">
<rect width="56.8421" height="60" fill="white"/>
</clipPath>
</defs>
</svg>
