<svg width="44" height="49" viewBox="0 0 44 49" fill="none" xmlns="http://www.w3.org/2000/svg">
<path d="M21.7703 1C10.3033 1 1 7.80106 1 16.1775C1 25.8157 14.8468 41.0896 19.9312 46.3652C20.1423 46.5879 20.4189 46.7691 20.7385 46.894C21.0581 47.019 21.4116 47.0841 21.7703 47.0841C22.1289 47.0841 22.4824 47.019 22.802 46.894C23.1216 46.7691 23.3982 46.5879 23.6093 46.3652C28.6937 41.0918 42.5405 25.8235 42.5405 16.1775C42.5405 7.80106 33.2372 1 21.7703 1Z" stroke="#EB601D" stroke-width="2" stroke-linecap="round" stroke-linejoin="round"/>
<path d="M21.7701 22.2706C25.5938 22.2706 28.6935 19.8898 28.6935 16.9529C28.6935 14.0161 25.5938 11.6353 21.7701 11.6353C17.9464 11.6353 14.8467 14.0161 14.8467 16.9529C14.8467 19.8898 17.9464 22.2706 21.7701 22.2706Z" stroke="#EB601D" stroke-width="2" stroke-linecap="round" stroke-linejoin="round"/>
</svg>
