<svg width="116" height="48" viewBox="0 0 116 48" fill="none" xmlns="http://www.w3.org/2000/svg">
<path d="M7.03974 30.8245C8.94222 25.617 15.1838 21.7981 22.5866 21.7981C31.5019 21.7981 38.7307 27.3367 38.7307 34.1675C38.7307 40.9983 31.5019 46.5369 22.5866 46.5369C14.4396 46.5369 7.69991 41.9133 6.59863 35.9034" stroke="#EB601D" stroke-width="2" stroke-miterlimit="10"/>
<path d="M98.9711 45.2678C107.43 45.2678 114.287 40.0139 114.287 33.5329C114.287 27.052 107.43 21.7981 98.9711 21.7981C90.5124 21.7981 83.6553 27.052 83.6553 33.5329C83.6553 40.0139 90.5124 45.2678 98.9711 45.2678Z" stroke="#EB601D" stroke-width="2" stroke-miterlimit="10"/>
<path d="M25.2549 13.9326L48.1686 16.0685" stroke="#EB601D" stroke-width="2" stroke-miterlimit="10"/>
<path d="M28.042 21.7981L36.7112 15.0018" stroke="#EB601D" stroke-width="2" stroke-miterlimit="10"/>
<path d="M22.2236 33.5329L28.0421 21.7981" stroke="#EB601D" stroke-width="2" stroke-miterlimit="10"/>
<path d="M98.9713 34.7399L79.2054 5.29477L73.1438 1.85754L65.627 3.71525" stroke="#EB601D" stroke-width="2" stroke-miterlimit="10"/>
<path d="M75.8108 26.3802C75.8108 26.3802 79.9339 26.3802 78.8416 29.9094C78.0644 32.427 75.8679 37.5886 74.6706 40.343C74.1964 41.4351 72.8641 42.1708 71.3607 42.1708H46.5355C45.9294 42.1708 45.3232 42.1156 44.7351 42.0029L27.9219 38.8255" stroke="#EB601D" stroke-width="2" stroke-miterlimit="10"/>
<path d="M39.5594 21.7613L46.8842 19.446C47.5954 19.2299 48.3636 19.6323 48.3636 20.2186L47.3193 26.0722C47.3193 26.7435 46.3321 27.1367 45.6179 26.7504L39.3133 23.3615C38.5361 22.943 38.6772 22.0303 39.5594 21.7636V21.7613Z" stroke="#EB601D" stroke-width="2" stroke-miterlimit="10"/>
<path d="M69.2396 35.4252L71.1211 30.7694L74.2029 23.1454C74.524 22.3384 73.7378 21.5222 72.6365 21.5222H59.4362C58.3079 21.5222 57.3117 22.0832 56.9756 22.9086L53.8698 30.4176L49.8038 30.3808C48.6365 30.3693 47.5892 30.9234 47.1871 31.7649L45.7108 34.8504C45.2487 35.816 46.1789 36.8414 47.5232 36.846L66.62 36.9058C67.8233 36.9104 68.8856 36.3103 69.2366 35.4298L69.2396 35.4252Z" stroke="#EB601D" stroke-width="2" stroke-miterlimit="10"/>
<path d="M53.8701 30.4153H71.1214" stroke="#EB601D" stroke-width="2" stroke-miterlimit="10"/>
<path d="M52.6692 16.7491C53.1433 16.9285 53.6715 17.0113 54.1996 17.0044L72.7773 16.6825C72.7773 16.6825 78.9768 16.6825 77.4554 10.7645C75.934 4.84647 66.2506 7.84685 66.2506 7.84685L53.1253 11.199C51.67 11.5715 50.5387 12.4957 50.2596 13.6499C50.0106 14.6753 50.3766 15.8801 52.6722 16.7491H52.6692Z" stroke="#EB601D" stroke-width="2" stroke-miterlimit="10"/>
<path d="M3.79961 31.1086L2.56403 33.5995C2.33558 34.06 2.63765 34.5752 3.23873 34.7503L25.1093 41.119C25.7103 41.294 26.3828 41.0626 26.6112 40.6021L27.8468 38.1112C28.0753 37.6506 27.7732 37.1354 27.1721 36.9604L5.30159 30.5917C4.70051 30.4166 4.02806 30.6481 3.79961 31.1086Z" stroke="#EB601D" stroke-width="2" stroke-miterlimit="10"/>
<path d="M1 31.7327L3.18155 32.3521" stroke="#EB601D" stroke-width="2" stroke-miterlimit="10"/>
<path d="M86.0469 1V7.08584" stroke="#EB601D" stroke-width="2" stroke-miterlimit="10"/>
</svg>
