<svg width="445" height="115" viewBox="0 0 445 115" fill="none" xmlns="http://www.w3.org/2000/svg">
<g clip-path="url(#clip0_306_5652)">
<path fill-rule="evenodd" clip-rule="evenodd" d="M151.65 36.22H119.45C119.65 32.77 122.5 30.05 126 30.05V15.65C96.26 14.61 82.34 4.9 75.93 0C69.52 4.91 55.56 14.61 25.82 15.65V30.05C29.32 30.05 32.17 32.78 32.37 36.22H0V76.02H30.09C30.09 77.29 29.42 81.06 21.33 81.96C26.87 87.05 59.16 114.45 75.93 114.45C92.7 114.45 125.07 87.05 130.61 81.96C123.05 81.14 121.85 77.82 121.85 76.02H151.64V36.22H151.65Z" fill="#100C08"/>
<path fill-rule="evenodd" clip-rule="evenodd" d="M148.43 72.68H3.37012V40.05H148.43V72.68Z" fill="#EB601D"/>
<path fill-rule="evenodd" clip-rule="evenodd" d="M6.74023 43.04V69.31H145.13V43.04H6.74023Z" fill="#100C08"/>
<path d="M16.24 53.96H13.83V45.78H10.79V66.25H13.83V57.46H16.24V66.25H19.29V45.78H16.24V53.96Z" fill="white"/>
<path d="M22.5605 45.78L20.2305 66.24H22.9905L23.6105 60.92H25.8405L26.3805 66.24H29.4605L27.1305 45.78H22.5605ZM23.9805 57.46L24.6905 49.51H24.8905L25.4805 57.46H23.9705H23.9805Z" fill="white"/>
<path d="M35.6101 45.78H30.5801V66.24H33.6301V57.77C35.5701 57.77 36.1001 58.16 36.1001 59.4V66.25H39.1501V58.13C39.1101 56.74 37.9401 55.96 37.7801 55.78C38.8701 54.91 39.1501 53.72 39.1501 52.2V49.3C39.1501 46.66 38.0701 45.79 35.6201 45.79L35.6101 45.78ZM35.9801 52.94C35.9801 53.69 35.7501 54.6 34.6901 54.6H33.6301V48.6H34.8401C35.5301 48.6 35.9901 49.09 35.9901 49.87V52.94H35.9801Z" fill="white"/>
<path d="M43.9504 45.78H40.9004V66.25H47.0404V63.01H43.9504V45.78Z" fill="white"/>
<path d="M51.1103 57.21H54.2203V53.98H51.1103V48.98H54.3603V45.78H48.0703V66.25H54.4203V63.01H51.1103V57.21Z" fill="white"/>
<path d="M61.7696 45.78L60.0796 52.93L58.4396 45.78H55.3096L58.4396 58.6V66.25H61.4896V58.46L64.6196 45.78H61.7696Z" fill="white"/>
<path d="M69.2597 54.64H63.6797V57.22H69.2597V54.64Z" fill="white"/>
<path d="M74.5696 45.78H70.8896V66.24H75.2297C77.5897 66.24 78.8496 64.49 78.8496 62.53V50.4C78.8496 46.81 77.5896 45.77 74.5696 45.77V45.78ZM75.8096 61.49C75.8096 62.81 75.4397 63.01 74.6597 63.01H73.9397V49H74.6597C75.4397 49 75.8096 49.2 75.8096 50.52V61.48V61.49Z" fill="white"/>
<path d="M81.9902 45.78L79.6602 66.24H82.4202L83.0402 60.92H85.2701L85.8102 66.24H88.8902L86.5602 45.78H81.9902ZM83.4102 57.46L84.1202 49.51H84.3202L84.9102 57.46H83.4002H83.4102Z" fill="white"/>
<path d="M92.5197 58.09L91.0397 45.78H87.9297L90.7897 66.25H94.1997L97.0597 45.78H93.9897L92.5197 58.09Z" fill="white"/>
<path d="M100.97 45.78H97.9199V66.24H100.97V45.78Z" fill="white"/>
<path d="M106.46 45.78H102.78V66.24H107.12C109.48 66.24 110.74 64.49 110.74 62.53V50.4C110.74 46.81 109.48 45.77 106.46 45.77V45.78ZM107.7 61.49C107.7 62.81 107.33 63.01 106.55 63.01H105.83V49H106.55C107.33 49 107.7 49.2 107.7 50.52V61.48V61.49Z" fill="white"/>
<path d="M116.36 45.38C114.49 45.38 112.13 46.16 112.13 48.83V53.22C112.13 56.55 117.57 57.35 117.57 60.22V62.38C117.57 63.41 116.99 63.64 116.39 63.64C115.79 63.64 115.22 63.41 115.22 62.38V58.75H112.17V63.2C112.17 65.87 114.49 66.65 116.36 66.65C118.23 66.65 120.62 65.87 120.62 63.2V58.27C120.62 56.2 115.18 53.61 115.18 52.14V49.87C115.18 48.84 115.76 48.61 116.39 48.61C117.02 48.61 117.61 48.84 117.61 49.87V52.73H120.66V48.83C120.66 46.16 118.26 45.38 116.37 45.38H116.36Z" fill="white"/>
<path d="M126.23 45.38C124.36 45.38 121.96 46.16 121.96 48.83V63.2C121.96 65.87 124.36 66.65 126.23 66.65C128.1 66.65 130.55 65.87 130.55 63.2V48.83C130.55 46.16 128.09 45.38 126.23 45.38ZM127.51 61.97C127.51 63 126.89 63.23 126.26 63.23C125.63 63.23 125.01 63 125.01 61.97V49.95C125.01 48.92 125.63 48.69 126.26 48.69C126.89 48.69 127.51 48.92 127.51 49.95V61.97Z" fill="white"/>
<path d="M137.91 45.78V56.19L135.92 45.78H131.8V66.25H134.86V54.6L137.28 66.25H141.01V45.78H137.91Z" fill="white"/>
<path d="M134.56 82.56C134.21 82.56 133.88 82.5 133.59 82.37C133.29 82.25 133.04 82.08 132.82 81.86C132.6 81.64 132.44 81.39 132.32 81.09C132.2 80.79 132.14 80.48 132.14 80.13C132.14 79.78 132.2 79.46 132.33 79.16C132.45 78.86 132.63 78.61 132.85 78.39C133.07 78.17 133.33 78.01 133.62 77.88C133.91 77.75 134.23 77.7 134.57 77.7C134.91 77.7 135.23 77.76 135.53 77.89C135.82 78.02 136.08 78.19 136.3 78.41C136.52 78.63 136.69 78.89 136.81 79.18C136.93 79.47 136.99 79.79 136.99 80.12C136.99 80.45 136.93 80.78 136.8 81.08C136.68 81.37 136.51 81.63 136.29 81.85C136.07 82.07 135.82 82.24 135.52 82.36C135.23 82.48 134.91 82.55 134.56 82.55V82.56ZM134.56 82.3C134.86 82.3 135.15 82.25 135.41 82.13C135.67 82.02 135.9 81.87 136.09 81.67C136.28 81.47 136.44 81.24 136.55 80.98C136.66 80.72 136.72 80.44 136.72 80.14C136.72 79.84 136.67 79.57 136.56 79.31C136.45 79.05 136.3 78.82 136.11 78.62C135.92 78.42 135.69 78.26 135.43 78.15C135.17 78.04 134.88 77.98 134.57 77.98C134.26 77.98 133.98 78.03 133.71 78.14C133.45 78.25 133.22 78.4 133.03 78.6C132.84 78.8 132.68 79.03 132.58 79.29C132.48 79.55 132.42 79.84 132.42 80.15C132.42 80.46 132.47 80.72 132.58 80.98C132.69 81.24 132.83 81.47 133.03 81.67C133.22 81.87 133.45 82.03 133.71 82.14C133.97 82.25 134.26 82.31 134.58 82.31L134.56 82.3ZM133.71 81.57V78.71H134.53C134.84 78.71 135.08 78.78 135.25 78.91C135.42 79.04 135.5 79.25 135.5 79.53C135.5 79.74 135.44 79.91 135.33 80.04C135.22 80.17 135.09 80.26 134.93 80.31L135.69 81.57H135.3L134.61 80.39H134.03V81.57H133.69H133.71ZM134.04 80.11H134.5C134.7 80.11 134.86 80.06 134.99 79.96C135.12 79.86 135.18 79.72 135.18 79.54C135.18 79.36 135.12 79.21 135 79.12C134.88 79.04 134.72 78.99 134.51 78.99H134.04V80.1V80.11Z" fill="#100C08"/>
<path fill-rule="evenodd" clip-rule="evenodd" d="M29.1096 27.59V18.61C56.0296 17.21 69.3096 9.14001 75.9296 4.17001C83.0296 9.20001 95.7896 17.21 122.71 18.61V27.59H122.7C119.04 28.91 116.39 32.13 116.27 36.22H113.04C113.14 31.59 115.67 27.79 119.41 25.58V21.51C97.6796 19.98 83.4896 13.24 75.9296 8.04001C69.3296 12.89 56.0596 19.38 32.4096 21.51V25.58C36.1396 27.79 38.6696 31.59 38.7796 36.22H35.5496C35.4296 32.13 32.7596 28.91 29.0996 27.59H29.1096Z" fill="#EB601D"/>
<path fill-rule="evenodd" clip-rule="evenodd" d="M123.13 83.31C114.3 92.29 87.6103 111 75.9303 111C64.2503 111 37.6503 92.29 28.8203 83.31C33.3903 81.29 34.1303 78.34 34.4303 76.02H38.1003C37.8803 78.19 37.4303 81.66 34.4303 83.75C37.8703 87.04 63.6503 107.7 75.9303 107.7C88.2103 107.7 114.07 87.04 117.51 83.75C114.52 81.65 114.07 78.19 113.84 76.02H117.51C117.81 78.34 118.56 81.28 123.12 83.31H123.13Z" fill="#EB601D"/>
<path d="M101.65 32.04H105.02C105.51 32.04 106.59 32.45 106.59 33.35V36.22H110.11V32.56C110.11 31.96 109.4 30.95 108.88 30.65C110 30.09 110.11 29.3 110.11 28.4V25.89C110.11 23.57 107.79 22.78 106.59 22.52L98.1299 20.76V36.21H101.65V32.03V32.04ZM101.65 24.93L105.84 25.79C106.59 25.94 106.59 26.65 106.59 27.29C106.59 27.93 106.48 28.53 105.8 28.53H101.65V24.94V24.93Z" fill="#EB601D"/>
<path d="M86.8296 36.22H91.4296C94.4996 36.22 95.1696 33.95 95.1396 32.78V23.35C95.1796 21.1 94.4996 19.79 93.0096 19.2L86.8696 16.84C84.9996 16.17 83.3096 17.21 83.3096 18.86V32.63C83.3096 35.4 85.2896 36.21 86.8296 36.21V36.22ZM86.8296 21.89C86.8296 21.07 87.4296 20.84 87.9496 21.07L90.7896 22.19C91.5396 22.56 91.6096 23.09 91.6096 23.91V31.54C91.6096 32.21 91.3096 32.63 90.4896 32.63H87.9096C87.1196 32.63 86.8196 32.11 86.8196 31.47V21.89H86.8296Z" fill="#EB601D"/>
<path d="M74.18 36.22H77.99V16.73L82.63 19.24V15.35L75.93 11.68L69.54 15.16V19.05L74.18 16.51V36.22Z" fill="#EB601D"/>
<path d="M60.9705 36.22H65.5705C67.1005 36.22 69.0905 35.4 69.0905 32.64V18.87C69.0905 17.22 67.4105 16.18 65.5305 16.85L59.3905 19.21C57.8905 19.81 57.2205 21.12 57.2605 23.36V32.79C57.2205 33.95 57.9005 36.23 60.9705 36.23V36.22ZM60.7805 23.92C60.7805 23.1 60.8505 22.57 61.6005 22.2L64.4405 21.08C64.9605 20.86 65.5605 21.08 65.5605 21.9V31.48C65.5605 32.12 65.2605 32.64 64.4705 32.64H61.8905C61.0705 32.64 60.7705 32.23 60.7705 31.55V23.92H60.7805Z" fill="#EB601D"/>
<path d="M51.6495 36.22H55.1595V20.51L51.8695 21.37L48.7995 28.52L46.0295 22.61L42.5195 23.24V36.22H46.0295V30.06L48.9095 36.22L51.6495 29.83V36.22Z" fill="#EB601D"/>
<path fill-rule="evenodd" clip-rule="evenodd" d="M46.22 85.4C46.42 85.53 54.32 91.69 54.32 91.69V95.44C54.32 95.44 43.2 87.14 42.87 86.94C42.47 86.67 41.93 85.73 41.8 85.07C41.67 84.4 41.8 79.04 41.8 78.44C41.8 77.84 42.47 76.03 43.41 76.03H52.05V79.58H46.89C46.09 79.51 45.62 79.78 45.62 80.52V84.47C45.62 84.74 45.95 85.27 46.22 85.41V85.4Z" fill="#EB601D"/>
<path fill-rule="evenodd" clip-rule="evenodd" d="M54.1201 76.03H57.7401L59.6801 82.06L62.8301 76.03H66.2501L61.3601 86.61V99.27C61.3601 99.87 57.9501 98 57.8801 97.53C57.7501 97.06 57.8801 86.48 57.8801 86.48L54.1301 76.03H54.1201Z" fill="#EB601D"/>
<path fill-rule="evenodd" clip-rule="evenodd" d="M70.9998 98.98C71.1998 99.38 75.6198 101.46 75.6198 101.46V105.61C75.6198 105.61 68.5198 102.6 67.8498 101.93C67.1098 101.19 67.0498 100.39 67.0498 100.06V79.03C67.0498 77.76 69.5898 76.03 70.1998 76.03H75.4198V79.84C75.4198 79.97 72.4098 79.97 71.6698 79.84C71.2698 79.77 70.7298 80.31 70.7298 82.18V97.72C70.7298 98.05 70.7298 98.66 70.9998 98.99V98.98Z" fill="#EB601D"/>
<path fill-rule="evenodd" clip-rule="evenodd" d="M86.0696 97.98V101.6C86.0696 101.6 80.1796 104.21 79.2396 104.68C78.6996 104.95 78.0996 104.48 78.0996 103.68V76.04H82.1196V99.6L86.0696 97.99V97.98Z" fill="#EB601D"/>
<path fill-rule="evenodd" clip-rule="evenodd" d="M94.6998 85.26V88.34H90.9498V95.77L95.4998 93.63V96.91L89.4698 99.92C88.7298 100.25 87.7998 99.92 87.7998 99.25V77.35C87.7998 76.48 88.5398 76.01 89.1398 76.01H96.1698V79.83H90.9498V85.25H94.6998V85.26Z" fill="#EB601D"/>
<path fill-rule="evenodd" clip-rule="evenodd" d="M106.28 85.52C106.28 85.52 100.39 85.65 99.3201 85.52C98.3201 85.39 97.9101 85.19 97.9101 84.45C97.9101 83.78 97.8401 79.36 97.9101 78.09C98.0401 76.82 100.05 76.16 100.99 76.03C101.86 75.96 109.83 76.03 109.83 76.03V79.5H101.33C101 79.5 101.06 82.38 101.33 82.38H108.96C110.03 82.38 109.9 82.65 109.9 83.12V87.41C109.9 87.88 109.23 88.41 108.96 88.68C108.76 88.88 97.5801 95.64 97.5801 95.64V92.63C97.5801 92.63 106.49 87.01 106.55 86.6C106.68 86 106.28 85.53 106.28 85.53V85.52Z" fill="#EB601D"/>
<path d="M330.51 57.68L332.92 47.09L327.12 45.33L325.13 54.06H327.3L326.48 57.68H317.65L321.88 39.1L337 43.87L354.26 39.1L350.03 57.68H341.2L342.02 54.06H344.19L346.18 45.33L339.58 47.09L337.17 57.68H330.51Z" fill="white"/>
<path d="M362.79 48.78L364.01 43.44H377.2L376.08 48.35L382.79 48.13L384.68 39.82H358.17L356.08 49L362.79 48.78Z" fill="white"/>
<path d="M375.73 49.91L374.78 54.06H361.59L362.63 49.47L356.03 49.25L354.11 57.68H380.62L382.34 50.13L375.73 49.91Z" fill="white"/>
<path d="M393.07 43.44H397.36L396.39 47.68L403.1 47.46L404.02 43.44H408.3L407.49 47.01L414.2 46.81L415.79 39.82H387.23L385.41 47.82L392.17 47.56L393.07 43.44Z" fill="white"/>
<path d="M395.73 50.57L394.12 57.68H400.78L402.34 50.79L395.73 50.57Z" fill="white"/>
<path d="M423.41 46.8L424.17 43.44H437.37L436.7 46.36L443.41 46.15L444.85 39.82H418.34L416.7 47.02L423.41 46.8Z" fill="white"/>
<path d="M435.441 51.9L434.951 54.06H421.761L422.351 51.46L415.741 51.24L414.271 57.68H440.791L442.051 52.12L435.441 51.9Z" fill="white"/>
<path d="M268.9 38.76L265 55.55L251.02 58.04L262.78 72.93H246.76L237 60.53L229 61.95L226.45 72.93H214.87L222.81 38.77H268.91L268.9 38.76ZM255.71 45.69H232.77L230.77 54.28L254.7 50.03L255.71 45.69Z" fill="#C00D0D"/>
<path d="M273.83 38.76H319.44L316.68 50.62L305.55 48.67L306.24 45.69H283.79L282.71 50.33L315.37 56.24L311.49 72.93H265.88L268.49 61.7L279.64 63.55L279.07 65.99H301.52L302.63 61.21L269.97 55.3L273.82 38.75L273.83 38.76Z" fill="#C00D0D"/>
<path d="M316.6 62.49H335.06L334.11 66.11L329.58 65.51L329.82 64.6H320.73L320.36 66.02L333.66 67.82L332.32 72.92H313.86L314.76 69.49L319.3 70.06L319.1 70.81H328.19L328.57 69.35L315.27 67.55L316.6 62.5V62.49Z" fill="white"/>
<path d="M354.49 69.08L353.48 72.92H334.82L337.56 62.49H356.22L355.21 66.33L350.66 65.79L350.97 64.6H341.69L340.06 70.8H349.34L349.65 69.61L354.48 69.07L354.49 69.08Z" fill="white"/>
<path d="M374.63 72.92H369.94L371.04 68.73H361.77L360.67 72.92H355.98L358.72 62.49H363.41L362.32 66.62H371.59L372.68 62.49H377.37L374.63 72.92Z" fill="white"/>
<path d="M396.16 72.92H377.5L380.24 62.49H398.9L396.16 72.92ZM393.66 64.6H384.38L382.75 70.8H392.03L393.66 64.6Z" fill="white"/>
<path d="M417.69 72.92H399.03L401.77 62.49H420.43L417.69 72.92ZM415.19 64.6H405.91L404.28 70.8H413.56L415.19 64.6Z" fill="white"/>
<path d="M438.47 69.01L437.44 72.93H420.56L423.3 62.5H427.99L425.8 70.82H433.31L433.64 69.55L438.47 69.01Z" fill="white"/>
<path d="M179.49 50.52L187.02 58.04" stroke="white" stroke-width="0.5" stroke-miterlimit="10"/>
<path d="M187.02 50.52L179.49 58.04" stroke="white" stroke-width="0.5" stroke-miterlimit="10"/>
</g>
<defs>
<clipPath id="clip0_306_5652">
<rect width="444.85" height="114.45" fill="white"/>
</clipPath>
</defs>
</svg>
